<svg version="1.1" viewBox="0.0 0.0 113.38582677165354 113.38582677165354" fill="none" stroke="none" stroke-linecap="square" stroke-miterlimit="10" xmlns:xlink="http://www.w3.org/1999/xlink" xmlns="http://www.w3.org/2000/svg"><clipPath id="p.0"><path d="m0 0l113.385826 0l0 113.385826l-113.385826 0l0 -113.385826z" clip-rule="nonzero"/></clipPath><g clip-path="url(#p.0)"><path fill="#000000" fill-opacity="0.0" d="m0 0l113.385826 0l0 113.385826l-113.385826 0z" fill-rule="evenodd"/><path fill="#ffff00" d="m0 56.692913l0 0c0 -31.31063 25.382282 -56.692913 56.692913 -56.692913l0 0c15.0358925 0 29.45596 5.972986 40.08794 16.604969c10.631989 10.631985 16.604973 25.052048 16.604973 40.087944l0 0c0 31.310635 -25.382278 56.692913 -56.692913 56.692913l0 0c-31.31063 0 -56.692913 -25.382278 -56.692913 -56.692913z" fill-rule="evenodd"/><path stroke="#000000" stroke-width="1.0" stroke-linejoin="round" stroke-linecap="butt" d="m0 56.692913l0 0c0 -31.31063 25.382282 -56.692913 56.692913 -56.692913l0 0c15.0358925 0 29.45596 5.972986 40.08794 16.604969c10.631989 10.631985 16.604973 25.052048 16.604973 40.087944l0 0c0 31.310635 -25.382278 56.692913 -56.692913 56.692913l0 0c-31.31063 0 -56.692913 -25.382278 -56.692913 -56.692913z" fill-rule="evenodd"/><path fill="#0000ff" d="m34.31496 56.692913l0 0c0 -12.359001 10.018951 -22.377953 22.377953 -22.377953l0 0c5.9350014 0 11.626919 2.3576698 15.823605 6.554352c4.196678 4.196678 6.554352 9.888599 6.554352 15.823601l0 0c0 12.359005 -10.018951 22.377956 -22.377956 22.377956l0 0c-12.359001 0 -22.377953 -10.018951 -22.377953 -22.377956z" fill-rule="evenodd"/><path stroke="#000000" stroke-width="1.0" stroke-linejoin="round" stroke-linecap="butt" d="m34.31496 56.692913l0 0c0 -12.359001 10.018951 -22.377953 22.377953 -22.377953l0 0c5.9350014 0 11.626919 2.3576698 15.823605 6.554352c4.196678 4.196678 6.554352 9.888599 6.554352 15.823601l0 0c0 12.359005 -10.018951 22.377956 -22.377956 22.377956l0 0c-12.359001 0 -22.377953 -10.018951 -22.377953 -22.377956z" fill-rule="evenodd"/><path fill="#0000ff" d="m22.653383 36.38628l43.968506 -16.440943l2.551178 6.8346443l-43.968502 16.440947z" fill-rule="evenodd"/><path stroke="#000000" stroke-width="1.0" stroke-linejoin="round" stroke-linecap="butt" d="m22.653383 36.38628l43.968506 -16.440943l2.551178 6.8346443l-43.968502 16.440947z" fill-rule="evenodd"/></g></svg>